<svg width="512" height="512" viewBox="0 0 512 512" fill="none" xmlns="http://www.w3.org/2000/svg">
  <defs>
    <linearGradient id="bg" x1="256" y1="0" x2="256" y2="512" gradientUnits="userSpaceOnUse">
      <stop stop-color="#bfdbfe"/>
      <stop offset="1" stop-color="#3b82f6"/>
    </linearGradient>
    <filter id="shadow" x="-50" y="-50" width="612" height="612" filterUnits="userSpaceOnUse" color-interpolation-filters="sRGB">
      <feFlood flood-opacity="0" result="BackgroundImageFix"/>
      <feColorMatrix in="SourceAlpha" type="matrix" values="0 0 0 0 0 0 0 0 0 0 0 0 0 0 0 0 0 0 127 0" result="hardAlpha"/>
      <feOffset dy="4"/>
      <feGaussianBlur stdDeviation="6"/>
      <feComposite in2="hardAlpha" operator="out"/>
      <feColorMatrix type="matrix" values="0 0 0 0 0 0 0 0 0 0 0 0 0 0 0 0 0 0 0.2 0"/>
      <feBlend mode="normal" in2="BackgroundImageFix" result="effect1_dropShadow"/>
      <feBlend mode="normal" in="SourceGraphic" in2="effect1_dropShadow" result="shape"/>
    </filter>
  </defs>
  
  <!-- Background -->
  <rect width="512" height="512" rx="100" fill="url(#bg)"/>
  
  <!-- Sparkles -->
  <g filter="url(#shadow)">
    <path d="M100 60 L115 90 L145 105 L115 120 L100 150 L85 120 L55 105 L85 90 Z" fill="#FBBF24"/>
    <path d="M160 40 L168 55 L185 60 L168 65 L160 80 L152 65 L135 60 L152 55 Z" fill="#F59E0B"/>
    <path d="M50 130 L58 145 L75 150 L58 155 L50 170 L42 155 L25 150 L42 145 Z" fill="#60A5FA"/>
  </g>

  <!-- Book -->
  <g filter="url(#shadow)" transform="translate(0, 20)">
    <!-- Cover -->
    <path d="M80 120 C 80 120, 256 100, 256 220 L 256 380 C 256 380, 100 400, 80 380 Z" fill="#10B981"/>
    <path d="M432 120 C 432 120, 256 100, 256 220 L 256 380 C 256 380, 412 400, 432 380 Z" fill="#059669"/>
    
    <!-- Pages -->
    <path d="M90 135 C 90 135, 250 115, 250 220 L 250 370 C 250 370, 110 390, 90 370 Z" fill="#FFFFFF"/>
    <path d="M422 135 C 422 135, 262 115, 262 220 L 262 370 C 262 370, 402 390, 422 370 Z" fill="#FFFFFF"/>
    
    <!-- Text Lines -->
    <path d="M120 180 H 220" stroke="#CBD5E1" stroke-width="8" stroke-linecap="round"/>
    <path d="M120 220 H 220" stroke="#CBD5E1" stroke-width="8" stroke-linecap="round"/>
    <path d="M120 260 H 220" stroke="#CBD5E1" stroke-width="8" stroke-linecap="round"/>
    
    <path d="M292 180 H 392" stroke="#CBD5E1" stroke-width="8" stroke-linecap="round"/>
    <path d="M292 220 H 392" stroke="#CBD5E1" stroke-width="8" stroke-linecap="round"/>
    <path d="M292 260 H 392" stroke="#CBD5E1" stroke-width="8" stroke-linecap="round"/>
    
    <!-- Spine -->
    <path d="M248 380 Q 256 390 264 380 L 264 220 Q 256 230 248 220 Z" fill="#047857"/>
  </g>

  <!-- Medal/Checkmark -->
  <g filter="url(#shadow)">
     <!-- Ribbon -->
     <path d="M350 150 V 260 L 380 240 L 410 260 V 150" fill="#EF4444"/>
     
     <!-- Medal Circle -->
     <circle cx="380" cy="150" r="60" fill="#F59E0B"/>
     <circle cx="380" cy="150" r="50" fill="#FBBF24"/>
     
     <!-- Checkmark -->
     <path d="M355 150 L 375 170 L 405 130" stroke="white" stroke-width="12" stroke-linecap="round" stroke-linejoin="round"/>
  </g>

  <!-- Text -->
  <text x="256" y="450" font-family="sans-serif" font-weight="bold" font-size="44" text-anchor="middle" fill="white" style="filter: drop-shadow(0px 2px 2px rgba(0,0,0,0.3)); letter-spacing: 1px;">School Attendance</text>
</svg>